<svg xmlns="http://www.w3.org/2000/svg" aria-labelledby="descId" width="495" height="390" viewBox="0 0 495 390" fill="none">
  <svg xmlns="http://www.w3.org/2000/svg" width="495" height="195" fill="none" aria-labelledby="descId" viewBox="0 0 495 195" y="0">
    <title id="descId">null's GitHub Stats</title>
    <style>@keyframes rankAnimation{0%{stroke-dashoffset:251.32741228718345}}@keyframes scaleInAnimation{0%{transform:translate(-5px,5px) scale(0)}to{transform:translate(-5px,5px) scale(1)}}@keyframes fadeInAnimation{0%{opacity:0}to{opacity:1}}.stat{font:600 14px"Segoe UI",Ubuntu,Sans-Serif;fill:#434d58}.bold{font:700 14px"Segoe UI",Ubuntu,Sans-Serif}.icon{fill:#4c71f2}.stagger{opacity:0;animation:fadeInAnimation .3s ease-in-out forwards}.rank-circle,.rank-circle-rim{stroke:#2f80ed33;fill:none;stroke-width:6}.rank-circle{stroke:#2f80edcc;stroke-dasharray:250;stroke-linecap:round;transform-origin:-10px 8px;transform:rotate(-90deg);stroke-dashoffset:113.09733552923255}.rank-text{font:800 24px"Segoe UI",Ubuntu,Sans-Serif;fill:#434d58;transform:translate(-5px,5px)}.rank-circle{animation:rankAnimation 1s forwards ease-in-out}.rank-text{animation:scaleInAnimation .3s ease-in-out forwards}@supports (-moz-appearance:auto){.header{font-size:15.3px}}.lang-name{font:400 11px"Segoe UI",Ubuntu,Sans-Serif;fill:#434d58}.header{font:600 18px"Segoe UI",Ubuntu,Sans-Serif;fill:#2f80ed;animation:fadeInAnimation .8s ease-in-out forwards}@supports (-moz-appearance:auto){.header{font-size:15.3px}}</style>
    <rect width="494" height="99%" x=".5" y=".5" fill="#fffefe" stroke="#e4e2e2" rx="4.5"/>
    <text class="header" transform="translate(25 35)">null's GitHub Stats</text>
    <svg y="60">
        <g transform="translate(390 40)">
            <circle cx="-10" cy="8" r="40" class="rank-circle-rim"/>
            <circle cx="-10" cy="8" r="40" class="rank-circle"/>
            <text x="-5" y="3" alignment-baseline="central" class="rank-text" dominant-baseline="central" text-anchor="middle">A++</text>
        </g>
        <svg>
            <g class="stagger" style="animation-delay: 450ms" transform="translate(25)">
                <svg width="16" height="16" class="icon" viewBox="0 0 16 16">
                    <path fill-rule="evenodd" d="M8 .25a.75.75 0 0 1 .673.418l1.882 3.815 4.21.612a.75.75 0 0 1 .416 1.279l-3.046 2.97.719 4.192a.75.75 0 0 1-1.088.791L8 12.347l-3.766 1.98a.75.75 0 0 1-1.088-.79l.72-4.194L.818 6.374a.75.75 0 0 1 .416-1.28l4.21-.611L7.327.668A.75.75 0 0 1 8 .25zm0 2.445L6.615 5.5a.75.75 0 0 1-.564.41l-3.097.45 2.24 2.184a.75.75 0 0 1 .216.664l-.528 3.084 2.769-1.456a.75.75 0 0 1 .698 0l2.77 1.456-.53-3.084a.75.75 0 0 1 .216-.664l2.24-2.183-3.096-.45a.75.75 0 0 1-.564-.41L8 2.694v.001z"/>
                </svg>
                <text x="25" y="12.5" class="stat bold">Total Stars Earned:</text>
                <text x="170" y="12.5" class="stat">440</text>
            </g>
            <g class="stagger" style="animation-delay: 600ms" transform="translate(25 25)">
                <svg width="16" height="16" class="icon" viewBox="0 0 16 16">
                    <path fill-rule="evenodd" d="M1.643 3.143.427 1.927A.25.25 0 0 0 0 2.104V5.75c0 .138.112.25.25.25h3.646a.25.25 0 0 0 .177-.427L2.715 4.215a6.5 6.5 0 1 1-1.18 4.458.75.75 0 1 0-1.493.154 8.001 8.001 0 1 0 1.6-5.684zM7.75 4a.75.75 0 0 1 .75.75v2.992l2.028.812a.75.75 0 0 1-.557 1.392l-2.5-1A.75.75 0 0 1 7 8.25v-3.5A.75.75 0 0 1 7.75 4z"/>
                </svg>
                <text x="25" y="12.5" class="stat bold">Total Commits:</text>
                <text x="170" y="12.5" class="stat">459</text>
            </g>
            <g class="stagger" style="animation-delay: 750ms" transform="translate(25 50)">
                <svg width="16" height="16" class="icon" viewBox="0 0 16 16">
                    <path fill-rule="evenodd" d="M7.177 3.073 9.573.677A.25.25 0 0 1 10 .854v4.792a.25.25 0 0 1-.427.177L7.177 3.427a.25.25 0 0 1 0-.354zM3.75 2.5a.75.75 0 1 0 0 1.5.75.75 0 0 0 0-1.5zm-2.25.75a2.25 2.25 0 1 1 3 2.122v5.256a2.251 2.251 0 1 1-1.5 0V5.372A2.25 2.25 0 0 1 1.5 3.25zM11 2.5h-1V4h1a1 1 0 0 1 1 1v5.628a2.251 2.251 0 1 0 1.5 0V5A2.5 2.5 0 0 0 11 2.5zm1 10.25a.75.75 0 1 1 1.5 0 .75.75 0 0 1-1.5 0zM3.75 12a.75.75 0 1 0 0 1.5.75.75 0 0 0 0-1.5z"/>
                </svg>
                <text x="25" y="12.5" class="stat bold">Total PRs:</text>
                <text x="170" y="12.5" class="stat">57</text>
            </g>
            <g class="stagger" style="animation-delay: 900ms" transform="translate(25 75)">
                <svg width="16" height="16" class="icon" viewBox="0 0 16 16">
                    <path fill-rule="evenodd" d="M8 1.5a6.5 6.5 0 1 0 0 13 6.5 6.5 0 0 0 0-13zM0 8a8 8 0 1 1 16 0A8 8 0 0 1 0 8zm9 3a1 1 0 1 1-2 0 1 1 0 0 1 2 0zm-.25-6.25a.75.75 0 0 0-1.5 0v3.5a.75.75 0 0 0 1.5 0v-3.5z"/>
                </svg>
                <text x="25" y="12.5" class="stat bold">Total Issues:</text>
                <text x="170" y="12.5" class="stat">7</text>
            </g>
            <g class="stagger" style="animation-delay: 1050ms" transform="translate(25 100)">
                <svg width="16" height="16" class="icon" viewBox="0 0 16 16">
                    <path fill-rule="evenodd" d="M2 2.5A2.5 2.5 0 0 1 4.5 0h8.75a.75.75 0 0 1 .75.75v12.5a.75.75 0 0 1-.75.75h-2.5a.75.75 0 1 1 0-1.5h1.75v-2h-8a1 1 0 0 0-.714 1.7.75.75 0 0 1-1.072 1.05A2.495 2.495 0 0 1 2 11.5v-9zm10.5-1V9h-8c-.356 0-.694.074-1 .208V2.5a1 1 0 0 1 1-1h8zM5 12.25v3.25a.25.25 0 0 0 .4.2l1.45-1.087a.25.25 0 0 1 .3 0L8.6 15.7a.25.25 0 0 0 .4-.2v-3.25a.25.25 0 0 0-.25-.25h-3.5a.25.25 0 0 0-.25.25z"/>
                </svg>
                <text x="25" y="12.5" class="stat bold">Contributed to:</text>
                <text x="170" y="12.5" class="stat">46</text>
            </g>
        </svg>
    </svg>
</svg>
  <svg xmlns="http://www.w3.org/2000/svg" width="495" height="195" fill="none" aria-labelledby="descId" viewBox="0 0 495 195" y="195">
    <title id="descId">Most Used Languages</title>
    <style>@keyframes rankAnimation{0%{stroke-dashoffset:251.32741228718345}}@keyframes scaleInAnimation{0%{transform:translate(-5px,5px) scale(0)}to{transform:translate(-5px,5px) scale(1)}}@keyframes fadeInAnimation{0%{opacity:0}to{opacity:1}}.stat{font:600 14px"Segoe UI",Ubuntu,Sans-Serif;fill:#434d58}.bold{font:700 14px"Segoe UI",Ubuntu,Sans-Serif}.icon{fill:#4c71f2}.stagger{opacity:0;animation:fadeInAnimation .3s ease-in-out forwards}.rank-circle,.rank-circle-rim{stroke:#2f80ed33;fill:none;stroke-width:6}.rank-circle{stroke:#2f80edcc;stroke-dasharray:250;stroke-linecap:round;transform-origin:-10px 8px;transform:rotate(-90deg);stroke-dashoffset:113.09733552923255}.rank-text{font:800 24px"Segoe UI",Ubuntu,Sans-Serif;fill:#434d58;transform:translate(-5px,5px)}.rank-circle{animation:rankAnimation 1s forwards ease-in-out}.rank-text{animation:scaleInAnimation .3s ease-in-out forwards}@supports (-moz-appearance:auto){.header{font-size:15.3px}}.lang-name{font:400 11px"Segoe UI",Ubuntu,Sans-Serif;fill:#434d58}.header{font:600 18px"Segoe UI",Ubuntu,Sans-Serif;fill:#2f80ed;animation:fadeInAnimation .8s ease-in-out forwards}@supports (-moz-appearance:auto){.header{font-size:15.3px}}</style>
    <rect width="494" height="99%" x=".5" y=".5" fill="#fffefe" stroke="#e4e2e2" rx="4.5"/>
    <text class="header" transform="translate(25 35)">Most Used Languages</text>
    <svg y="60">
        <svg>
            <mask id="rect-mask">
                <rect width="445" height="8" x="25" fill="#fff" rx="5"/>
            </mask>
            <path fill="#ddd" d="M25 0h445v8H25z" mask="url(#rect-mask)"/>
            <path fill="#dea584" d="M25 0h137.193v8H25z" mask="url(#rect-mask)"/>
            <path fill="#858585" d="M162.193 0h116.724v8H162.193z" mask="url(#rect-mask)"/>
            <path fill="#3572A5" d="M278.917 0h83.304v8h-83.304z" mask="url(#rect-mask)"/>
            <path fill="#2b7489" d="M362.221 0h29.637v8h-29.637z" mask="url(#rect-mask)"/>
            <path fill="#f34b7d" d="M391.858 0h28.391v8h-28.391z" mask="url(#rect-mask)"/>
            <path fill="#083fa1" d="M420.249 0h20.425v8h-20.425z" mask="url(#rect-mask)"/>
            <path fill="#3D6117" d="M440.674 0h16.376v8h-16.376z" mask="url(#rect-mask)"/>
            <path fill="#555" d="M457.05 0H470v8h-12.95z" mask="url(#rect-mask)"/>
            <g transform="translate(25 25)">
                <circle cx="5" cy="6" r="5" fill="#dea584"/>
                <text x="15" y="10" class="lang-name">Rust - 603 hrs 24 mins</text>
            </g>
            <g transform="translate(247.5 25)">
                <circle cx="5" cy="6" r="5" fill="#858585"/>
                <text x="15" y="10" class="lang-name">Other - 513 hrs 15 mins</text>
            </g>
            <g transform="translate(25 50)">
                <circle cx="5" cy="6" r="5" fill="#3572A5"/>
                <text x="15" y="10" class="lang-name">Python - 366 hrs 23 mins</text>
            </g>
            <g transform="translate(247.5 50)">
                <circle cx="5" cy="6" r="5" fill="#2b7489"/>
                <text x="15" y="10" class="lang-name">TypeScript - 130 hrs 21 mins</text>
            </g>
            <g transform="translate(25 75)">
                <circle cx="5" cy="6" r="5" fill="#f34b7d"/>
                <text x="15" y="10" class="lang-name">C++ - 124 hrs 47 mins</text>
            </g>
            <g transform="translate(247.5 75)">
                <circle cx="5" cy="6" r="5" fill="#083fa1"/>
                <text x="15" y="10" class="lang-name">Markdown - 89 hrs 44 mins</text>
            </g>
            <g transform="translate(25 100)">
                <circle cx="5" cy="6" r="5" fill="#3D6117"/>
                <text x="15" y="10" class="lang-name">TeX - 72 hrs 5 mins</text>
            </g>
            <g transform="translate(247.5 100)">
                <circle cx="5" cy="6" r="5" fill="#555"/>
                <text x="15" y="10" class="lang-name">C - 56 hrs 55 mins</text>
            </g>
        </svg>
    </svg>
</svg>
</svg>
